<?xml version="1.0" standalone="no"?>
<!DOCTYPE svg PUBLIC "-//W3C//DTD SVG 20010904//EN"
 "http://www.w3.org/TR/2001/REC-SVG-20010904/DTD/svg10.dtd">
<svg version="1.0" xmlns="http://www.w3.org/2000/svg"
 width="500.000000pt" height="500.000000pt" viewBox="0 0 500.000000 500.000000"
 preserveAspectRatio="xMidYMid meet">
<metadata>
Created by potrace 1.14, written by Peter Selinger 2001-2017
</metadata>
<g transform="translate(0.000000,500.000000) scale(0.100000,-0.100000)"
fill="#000000" stroke="none">
<path d="M1856 3524 c-266 -58 -489 -234 -602 -479 -56 -120 -75 -211 -76
-351 l-1 -122 -54 -6 c-77 -9 -194 -57 -258 -105 -94 -71 -164 -174 -199 -290
-20 -69 -21 -208 -1 -286 49 -187 208 -342 401 -390 54 -14 224 -15 1400 -13
l1339 3 73 27 c106 38 176 83 257 163 80 80 136 169 168 270 18 58 22 92 21
205 0 123 -3 142 -28 210 -62 162 -180 297 -326 370 -104 52 -181 70 -307 70
-74 0 -103 3 -103 12 0 7 -21 55 -46 107 -87 178 -257 313 -451 355 -100 22
-212 20 -312 -5 l-82 -21 -69 65 c-194 184 -486 266 -744 211z m399 -108 c114
-37 226 -106 312 -192 40 -41 80 -74 90 -74 10 0 43 10 73 22 47 19 74 22 185
22 110 0 139 -3 189 -22 177 -65 298 -187 361 -362 l30 -85 135 -7 c207 -12
329 -58 448 -171 52 -50 112 -150 138 -232 29 -91 33 -228 9 -319 -46 -177
-188 -330 -368 -398 l-62 -23 -1334 -3 c-1462 -3 -1381 -6 -1493 55 -69 37
-153 130 -191 210 -30 65 -32 74 -32 188 0 114 2 123 32 188 36 76 116 166
181 204 64 38 156 63 227 63 84 0 98 13 88 83 -60 398 185 768 573 867 114 29
297 23 409 -14z"/>
<path d="M1960 2976 c-123 -33 -217 -146 -228 -272 -4 -56 -2 -63 17 -73 34
-19 58 1 66 56 18 119 117 213 226 213 31 0 49 17 49 47 0 41 -47 52 -130 29z"/>
<path d="M1800 2180 l0 -270 55 0 55 0 0 270 0 270 -55 0 -55 0 0 -270z"/>
<path d="M3480 2325 l0 -125 -32 20 c-66 40 -149 18 -202 -53 -30 -40 -30
-153 0 -193 51 -69 129 -91 197 -56 29 16 37 17 37 6 0 -10 15 -14 55 -14 l55
0 0 270 0 270 -55 0 -55 0 0 -125z m-17 -203 c22 -19 22 -79 0 -104 -23 -25
-84 -24 -108 2 -22 24 -24 72 -5 96 30 35 76 38 113 6z"/>
<path d="M1150 2229 c-46 -19 -70 -50 -70 -91 0 -45 22 -71 86 -98 45 -20 58
-45 28 -57 -9 -3 -31 2 -50 11 -46 21 -47 21 -68 -16 -19 -31 -19 -31 2 -49
48 -38 171 -36 218 4 16 14 27 36 31 63 4 33 1 45 -21 71 -14 17 -38 34 -53
38 -38 9 -75 34 -68 45 8 13 65 13 85 0 11 -7 19 -2 32 23 23 44 23 45 -19 56
-47 13 -100 13 -133 0z"/>
<path d="M1488 2230 c-41 -12 -87 -48 -104 -83 -21 -40 -21 -115 0 -155 53
-103 229 -121 317 -33 131 131 -24 328 -213 271z m125 -112 c21 -25 22 -66 1
-96 -11 -16 -25 -22 -54 -22 -60 0 -92 46 -70 100 21 51 86 61 123 18z"/>
<path d="M2064 2221 c-110 -51 -136 -193 -49 -270 92 -80 259 -58 311 41 10
18 18 53 18 78 0 96 -70 162 -178 167 -45 3 -72 -2 -102 -16z m125 -86 c44
-22 54 -77 21 -113 -29 -31 -93 -31 -114 0 -29 41 -15 101 27 118 31 12 34 12
66 -5z"/>
<path d="M2547 2221 c-29 -15 -37 -16 -37 -5 0 10 -15 14 -55 14 l-55 0 0
-240 0 -240 55 0 55 0 0 94 0 94 37 -19 c107 -55 226 26 225 152 -1 128 -117
205 -225 150z m67 -85 c76 -32 47 -140 -37 -138 -89 2 -89 131 1 151 1 1 18
-5 36 -13z"/>
<path d="M2904 2222 c-110 -52 -136 -194 -49 -271 92 -80 259 -58 311 41 10
18 18 53 18 78 0 96 -68 159 -176 167 -48 3 -73 -1 -104 -15z m125 -87 c27
-14 41 -39 41 -77 0 -54 -103 -81 -134 -36 -31 44 -10 112 37 121 12 2 23 5
25 6 2 0 16 -6 31 -14z"/>
<path d="M3740 2229 c-46 -19 -70 -50 -70 -91 0 -45 22 -71 86 -98 45 -20 58
-45 27 -57 -9 -4 -33 3 -55 14 l-38 21 -22 -35 -21 -36 21 -18 c48 -38 171
-36 218 4 16 14 27 36 31 63 4 33 1 45 -21 71 -14 17 -38 34 -53 38 -38 9 -75
34 -68 45 8 13 65 13 85 0 11 -7 19 -2 32 23 23 44 23 45 -19 56 -47 13 -100
13 -133 0z"/>
</g>
</svg>
